# xmcd
#
# Track frame offsets: 
#        150
#        14232
#        27130
#        38612
#        49627
#        61702
#        74352
#        86415
#        98425
#        106910
#        118625
#        129402
#        139267
#        151702
#        163310
#        174957
#        187680
#        199767
#        210062
#        222352
#        232177
#        244165
#        254345
#        265927
#        277117
#        289465
#        300250
#        312820
#        323550
#        336152
#        346260
#
# Disc length: 4758 seconds
#
# Revision: 0
# Processed by: cddbd v1.4PL0 Copyright (c) Steve Scherf et al.
# Submitted via: ExactAudioCopy v0.90b3
#
DISCID=af12941f
DTITLE=Ernest Tubb and The Texas Troubadours - Waltz Across Texas - CD5
DYEAR=1998
DGENRE=Country
TTITLE0=I'm With A Crowd But So Alone
TTITLE1=Give Me A Little Old Fashioned Love
TTITLE2=Precious Little Baby
TTITLE3=I Wonder Where You Are Tonight
TTITLE4=I Reached For The Wine
TTITLE5=My Past Brought Me To You (Your Past Brought You To Me)
TTITLE6=A Dear John Letter
TTITLE7=We're Not Kids Anymore
TTITLE8=Keep Those Cards And Letters Coming In
TTITLE9=Our Hearts Are Holding Hands
TTITLE10=Each Night At Nine
TTITLE11=Big City
TTITLE12=Before I'm Over You
TTITLE13=Beggar To A King
TTITLE14=When Two Worlds Collide
TTITLE15=Fraulein
TTITLE16=She Called Me Baby
TTITLE17=Tell Her So
TTITLE18=Don't Be Angry
TTITLE19=I've Got A Tiger By The Tail
TTITLE20=Waltz Across Texas
TTITLE21=Honeymoon With The Blues
TTITLE22=Afraid To Care
TTITLE23=Big Beaver
TTITLE24=Cocoanut Grove
TTITLE25=What Am I Bid
TTITLE26=Lost Highway
TTITLE27=After The Boy Gets The Girl
TTITLE28=I'm A Sad Lonely Man (That Love Left Behind)
TTITLE29=I'll Be There (If You Ever Want Me)
TTITLE30=Holdin' Hands
EXTD=
EXTT0=
EXTT1=
EXTT2=
EXTT3=
EXTT4=
EXTT5=
EXTT6=
EXTT7=
EXTT8=
EXTT9=
EXTT10=
EXTT11=
EXTT12=
EXTT13=
EXTT14=
EXTT15=
EXTT16=
EXTT17=
EXTT18=
EXTT19=
EXTT20=
EXTT21=
EXTT22=
EXTT23=
EXTT24=
EXTT25=
EXTT26=
EXTT27=
EXTT28=
EXTT29=
EXTT30=
PLAYORDER=
